<?xml version="1.0" encoding="UTF-8" standalone="no"?>
<svg
   xmlns:dc="http://purl.org/dc/elements/1.1/"
   xmlns:cc="http://creativecommons.org/ns#"
   xmlns:rdf="http://www.w3.org/1999/02/22-rdf-syntax-ns#"
   xmlns:svg="http://www.w3.org/2000/svg"
   xmlns="http://www.w3.org/2000/svg"
   xmlns:sodipodi="http://sodipodi.sourceforge.net/DTD/sodipodi-0.dtd"
   xmlns:inkscape="http://www.inkscape.org/namespaces/inkscape"
   viewBox="0 0 22.5 18.161691"
   height="14.529353pt"
   width="18pt"
   xml:space="preserve"
   version="1.1"
   id="svg2"
   inkscape:version="0.91 r13725"
   sodipodi:docname="salami_stub.svg"><sodipodi:namedview
     pagecolor="#ffffff"
     bordercolor="#666666"
     borderopacity="1"
     objecttolerance="10"
     gridtolerance="10"
     guidetolerance="10"
     inkscape:pageopacity="0"
     inkscape:pageshadow="2"
     inkscape:window-width="1336"
     inkscape:window-height="480"
     id="namedview44"
     showgrid="false"
     inkscape:zoom="12.994384"
     inkscape:cx="11.25"
     inkscape:cy="9.0808457"
     inkscape:window-x="0"
     inkscape:window-y="0"
     inkscape:window-maximized="0"
     inkscape:current-layer="svg2" /><metadata
     id="metadata8"><rdf:RDF><cc:Work
         rdf:about=""><dc:format>image/svg+xml</dc:format><dc:type
           rdf:resource="http://purl.org/dc/dcmitype/StillImage" /><dc:title></dc:title></cc:Work></rdf:RDF></metadata><defs
     id="defs6"><clipPath
       id="clipPath16"
       clipPathUnits="userSpaceOnUse"><path
         style="clip-rule:evenodd"
         id="path18"
         d="m 0,1.2207e-4 1190.52,0 0,539.99999793 -1190.52,0 L 0,1.2207e-4 Z" /></clipPath><linearGradient
       id="linearGradient26"
       spreadMethod="pad"
       gradientUnits="userSpaceOnUse"
       y2="333.87"
       x2="538.62"
       y1="26.122999"
       x1="538.62"><stop
         id="stop28"
         offset="0"
         style="stop-opacity:1;stop-color:#ce0000" /><stop
         id="stop30"
         offset="0.25"
         style="stop-opacity:1;stop-color:#ad0000" /><stop
         id="stop32"
         offset="0.5"
         style="stop-opacity:1;stop-color:#770000" /><stop
         id="stop34"
         offset="0.75"
         style="stop-opacity:1;stop-color:#ad0000" /><stop
         id="stop36"
         offset="1"
         style="stop-opacity:1;stop-color:#ce0000" /></linearGradient></defs><g
     transform="matrix(-1.25,0,0,1.25,543.71021,-205.38533)"
     id="g10"><g
       transform="matrix(0.06633499,0,0,0.06633499,390.23463,154.39085)"
       id="g4218"><path
         d="m 528,165.36 10.86,27 10.38,-27 -21.24,0 z"
         style="fill:#7b0000;fill-opacity:1;fill-rule:evenodd;stroke:none"
         id="path22"
         inkscape:connector-curvature="0" /><g
         id="g24"><path
           d="m 658.99,333.87 c 1.96,-82.5 -50.34,-151.37 -116.81,-153.8 -66.48,-2.44 -121.96,62.47 -123.93,144.98 -0.06,2.79 -0.07,5.59 -0.01,8.38 l 240.75,0.44 z"
           style="fill:url(#linearGradient26);fill-opacity:1;fill-rule:evenodd;stroke:none"
           id="path38"
           inkscape:connector-curvature="0" /></g><path
         d="m 658.38,333.84 c 0,-10.84 -53.65,-19.62 -119.82,-19.62 -66.17,0 -119.82,8.78 -119.82,19.62 0,10.84 53.65,19.62 119.82,19.62 66.17,0 119.82,-8.78 119.82,-19.62 z"
         style="fill:#f2002e;fill-opacity:1;fill-rule:evenodd;stroke:none"
         id="path40"
         inkscape:connector-curvature="0" /><path
         d="m 658.38,333.84 c 0,-10.84 -53.65,-19.62 -119.82,-19.62 -66.17,0 -119.82,8.78 -119.82,19.62 0,10.84 53.65,19.62 119.82,19.62 66.17,0 119.82,-8.78 119.82,-19.62 z"
         style="fill:none;stroke:#c00000;stroke-width:1.55999994;stroke-linecap:butt;stroke-linejoin:miter;stroke-miterlimit:10;stroke-dasharray:none;stroke-opacity:1"
         id="path42"
         inkscape:connector-curvature="0" /><path
         d="m 479.28,326.7 c 0,-1.49 -7.41,-2.7 -16.56,-2.7 -9.15,0 -16.56,1.21 -16.56,2.7 0,1.49 7.41,2.7 16.56,2.7 9.15,0 16.56,-1.21 16.56,-2.7 z"
         style="fill:#ffc5c1;fill-opacity:1;fill-rule:evenodd;stroke:none"
         id="path44"
         inkscape:connector-curvature="0" /><path
         d="m 534.72,320.52 c 0,-1.52 -7.41,-2.76 -16.56,-2.76 -9.15,0 -16.56,1.24 -16.56,2.76 0,1.52 7.41,2.76 16.56,2.76 9.15,0 16.56,-1.24 16.56,-2.76 z"
         style="fill:#ffc5c1;fill-opacity:1;fill-rule:evenodd;stroke:none"
         id="path46"
         inkscape:connector-curvature="0" /><path
         d="m 605.04,336.9 c 0,-1.49 -7.41,-2.7 -16.56,-2.7 -9.15,0 -16.56,1.21 -16.56,2.7 0,1.49 7.41,2.7 16.56,2.7 9.15,0 16.56,-1.21 16.56,-2.7 z"
         style="fill:#ffc5c1;fill-opacity:1;fill-rule:evenodd;stroke:none"
         id="path48"
         inkscape:connector-curvature="0" /><path
         d="m 467.64,338.52 c 0,-1.52 -7.41,-2.76 -16.56,-2.76 -9.15,0 -16.56,1.24 -16.56,2.76 0,1.52 7.41,2.76 16.56,2.76 9.15,0 16.56,-1.24 16.56,-2.76 z"
         style="fill:#ffc5c1;fill-opacity:1;fill-rule:evenodd;stroke:none"
         id="path50"
         inkscape:connector-curvature="0" /><path
         d="m 508.2,345.9 c 0,-1.16 -5.75,-2.1 -12.84,-2.1 -7.09,0 -12.84,0.94 -12.84,2.1 0,1.16 5.75,2.1 12.84,2.1 7.09,0 12.84,-0.94 12.84,-2.1 z"
         style="fill:#fdd8c3;fill-opacity:1;fill-rule:evenodd;stroke:none"
         id="path52"
         inkscape:connector-curvature="0" /><path
         d="m 601.8,348.42 c 0,-1.16 -5.75,-2.1 -12.84,-2.1 -7.09,0 -12.84,0.94 -12.84,2.1 0,1.16 5.75,2.1 12.84,2.1 7.09,0 12.84,-0.94 12.84,-2.1 z"
         style="fill:#fdd8c3;fill-opacity:1;fill-rule:evenodd;stroke:none"
         id="path54"
         inkscape:connector-curvature="0" /><path
         d="m 577.8,320.46 c 0,-1.16 -5.75,-2.1 -12.84,-2.1 -7.09,0 -12.84,0.94 -12.84,2.1 0,1.16 5.75,2.1 12.84,2.1 7.09,0 12.84,-0.94 12.84,-2.1 z"
         style="fill:#fdd8c3;fill-opacity:1;fill-rule:evenodd;stroke:none"
         id="path56"
         inkscape:connector-curvature="0" /><path
         d="m 617.52,326.94 c 0,-1.16 -5.75,-2.1 -12.84,-2.1 -7.09,0 -12.84,0.94 -12.84,2.1 0,1.16 5.75,2.1 12.84,2.1 7.09,0 12.84,-0.94 12.84,-2.1 z"
         style="fill:#fdd8c3;fill-opacity:1;fill-rule:evenodd;stroke:none"
         id="path58"
         inkscape:connector-curvature="0" /><path
         d="m 525.6,329.34 c 0,-1.16 -5.75,-2.1 -12.84,-2.1 -7.09,0 -12.84,0.94 -12.84,2.1 0,1.16 5.75,2.1 12.84,2.1 7.09,0 12.84,-0.94 12.84,-2.1 z"
         style="fill:#fdd8c3;fill-opacity:1;fill-rule:evenodd;stroke:none"
         id="path60"
         inkscape:connector-curvature="0" /><path
         d="m 502.68,336.84 c 0,-0.66 -3.28,-1.2 -7.32,-1.2 -4.04,0 -7.32,0.54 -7.32,1.2 0,0.66 3.28,1.2 7.32,1.2 4.04,0 7.32,-0.54 7.32,-1.2 z"
         style="fill:#fdd8c3;fill-opacity:1;fill-rule:evenodd;stroke:none"
         id="path62"
         inkscape:connector-curvature="0" /><path
         d="m 556.2,331.68 c 0,-0.66 -3.28,-1.2 -7.32,-1.2 -4.04,0 -7.32,0.54 -7.32,1.2 0,0.66 3.28,1.2 7.32,1.2 4.04,0 7.32,-0.54 7.32,-1.2 z"
         style="fill:#fdd8c3;fill-opacity:1;fill-rule:evenodd;stroke:none"
         id="path64"
         inkscape:connector-curvature="0" /><path
         d="m 570,343.44 c 0,-0.66 -3.28,-1.2 -7.32,-1.2 -4.04,0 -7.32,0.54 -7.32,1.2 0,0.66 3.28,1.2 7.32,1.2 4.04,0 7.32,-0.54 7.32,-1.2 z"
         style="fill:#fdd8c3;fill-opacity:1;fill-rule:evenodd;stroke:none"
         id="path66"
         inkscape:connector-curvature="0" /><path
         d="m 618.96,343.2 c 0,-0.66 -3.28,-1.2 -7.32,-1.2 -4.04,0 -7.32,0.54 -7.32,1.2 0,0.66 3.28,1.2 7.32,1.2 4.04,0 7.32,-0.54 7.32,-1.2 z"
         style="fill:#fdd8c3;fill-opacity:1;fill-rule:evenodd;stroke:none"
         id="path68"
         inkscape:connector-curvature="0" /><path
         d="m 520.68,350.4 c 0,-0.66 -3.28,-1.2 -7.32,-1.2 -4.04,0 -7.32,0.54 -7.32,1.2 0,0.66 3.28,1.2 7.32,1.2 4.04,0 7.32,-0.54 7.32,-1.2 z"
         style="fill:#fdd8c3;fill-opacity:1;fill-rule:evenodd;stroke:none"
         id="path70"
         inkscape:connector-curvature="0" /><path
         d="m 572.76,326.16 c 0,-0.66 -3.28,-1.2 -7.32,-1.2 -4.04,0 -7.32,0.54 -7.32,1.2 0,0.66 3.28,1.2 7.32,1.2 4.04,0 7.32,-0.54 7.32,-1.2 z"
         style="fill:#fdd8c3;fill-opacity:1;fill-rule:evenodd;stroke:none"
         id="path72"
         inkscape:connector-curvature="0" /><path
         d="m 643.2,330.12 c 0,-0.66 -3.28,-1.2 -7.32,-1.2 -4.04,0 -7.32,0.54 -7.32,1.2 0,0.66 3.28,1.2 7.32,1.2 4.04,0 7.32,-0.54 7.32,-1.2 z"
         style="fill:#fdd8c3;fill-opacity:1;fill-rule:evenodd;stroke:none"
         id="path74"
         inkscape:connector-curvature="0" /><path
         d="m 555.24,316.32 c 0,-0.66 -3.28,-1.2 -7.32,-1.2 -4.04,0 -7.32,0.54 -7.32,1.2 0,0.66 3.28,1.2 7.32,1.2 4.04,0 7.32,-0.54 7.32,-1.2 z"
         style="fill:#fdd8c3;fill-opacity:1;fill-rule:evenodd;stroke:none"
         id="path76"
         inkscape:connector-curvature="0" /><path
         d="m 486.96,321.24 c 0,-0.66 -3.28,-1.2 -7.32,-1.2 -4.04,0 -7.32,0.54 -7.32,1.2 0,0.66 3.28,1.2 7.32,1.2 4.04,0 7.32,-0.54 7.32,-1.2 z"
         style="fill:#fdd8c3;fill-opacity:1;fill-rule:evenodd;stroke:none"
         id="path78"
         inkscape:connector-curvature="0" /><path
         d="m 516.36,325.56 c 0,-0.33 -1.61,-0.6 -3.6,-0.6 -1.99,0 -3.6,0.27 -3.6,0.6 0,0.33 1.61,0.6 3.6,0.6 1.99,0 3.6,-0.27 3.6,-0.6 z"
         style="fill:#843c0c;fill-opacity:1;fill-rule:evenodd;stroke:none"
         id="path80"
         inkscape:connector-curvature="0" /><path
         d="m 602.16,320.58 c 0,-0.3 -1.61,-0.54 -3.6,-0.54 -1.99,0 -3.6,0.24 -3.6,0.54 0,0.3 1.61,0.54 3.6,0.54 1.99,0 3.6,-0.24 3.6,-0.54 z"
         style="fill:#843c0c;fill-opacity:1;fill-rule:evenodd;stroke:none"
         id="path82"
         inkscape:connector-curvature="0" /><path
         d="m 628.56,334.44 c 0,-0.33 -1.58,-0.6 -3.54,-0.6 -1.96,0 -3.54,0.27 -3.54,0.6 0,0.33 1.58,0.6 3.54,0.6 1.96,0 3.54,-0.27 3.54,-0.6 z"
         style="fill:#843c0c;fill-opacity:1;fill-rule:evenodd;stroke:none"
         id="path84"
         inkscape:connector-curvature="0" /><path
         d="m 546.12,339 c 0,-0.33 -1.61,-0.6 -3.6,-0.6 -1.99,0 -3.6,0.27 -3.6,0.6 0,0.33 1.61,0.6 3.6,0.6 1.99,0 3.6,-0.27 3.6,-0.6 z"
         style="fill:#843c0c;fill-opacity:1;fill-rule:evenodd;stroke:none"
         id="path86"
         inkscape:connector-curvature="0" /><path
         d="m 450.84,332.4 c 0,-0.33 -1.58,-0.6 -3.54,-0.6 -1.96,0 -3.54,0.27 -3.54,0.6 0,0.33 1.58,0.6 3.54,0.6 1.96,0 3.54,-0.27 3.54,-0.6 z"
         style="fill:#843c0c;fill-opacity:1;fill-rule:evenodd;stroke:none"
         id="path88"
         inkscape:connector-curvature="0" /><path
         d="m 545.64,348.42 c 0,-0.3 -1.61,-0.54 -3.6,-0.54 -1.99,0 -3.6,0.24 -3.6,0.54 0,0.3 1.61,0.54 3.6,0.54 1.99,0 3.6,-0.24 3.6,-0.54 z"
         style="fill:#843c0c;fill-opacity:1;fill-rule:evenodd;stroke:none"
         id="path90"
         inkscape:connector-curvature="0" /></g></g></svg>