<?xml version="1.0" encoding="UTF-8" standalone="no"?>
<svg
   xmlns:dc="http://purl.org/dc/elements/1.1/"
   xmlns:cc="http://creativecommons.org/ns#"
   xmlns:rdf="http://www.w3.org/1999/02/22-rdf-syntax-ns#"
   xmlns:svg="http://www.w3.org/2000/svg"
   xmlns="http://www.w3.org/2000/svg"
   xmlns:sodipodi="http://sodipodi.sourceforge.net/DTD/sodipodi-0.dtd"
   xmlns:inkscape="http://www.inkscape.org/namespaces/inkscape"
   version="1.0"
   width="20pt"
   height="20.000002pt"
   id="svg4759"
   inkscape:version="0.91 r13725"
   viewBox="0 0 7.0555554 7.0555563"
   sodipodi:docname="slice.svg">
  <metadata
     id="metadata4820">
    <rdf:RDF>
      <cc:Work
         rdf:about="">
        <dc:format>image/svg+xml</dc:format>
        <dc:type
           rdf:resource="http://purl.org/dc/dcmitype/StillImage" />
        <dc:title></dc:title>
      </cc:Work>
    </rdf:RDF>
  </metadata>
  <sodipodi:namedview
     pagecolor="#ffffff"
     bordercolor="#666666"
     borderopacity="1"
     objecttolerance="10"
     gridtolerance="10"
     guidetolerance="10"
     inkscape:pageopacity="0"
     inkscape:pageshadow="2"
     inkscape:window-width="1682"
     inkscape:window-height="1018"
     id="namedview4818"
     inkscape:document-units="mm"
     showgrid="false"
     fit-margin-top="2"
     fit-margin-left="2"
     fit-margin-right="2"
     fit-margin-bottom="2"
     inkscape:zoom="41.049996"
     inkscape:cx="12.5"
     inkscape:cy="12.500002"
     inkscape:window-x="-8"
     inkscape:window-y="-8"
     inkscape:window-maximized="1"
     inkscape:current-layer="svg4759"
     units="pt" />
  <defs
     id="defs4761">
    <pattern
       id="EMFhbasepattern"
       patternUnits="userSpaceOnUse"
       width="6"
       height="6"
       x="0"
       y="0" />
  </defs>
  <g
     id="g5362"
     transform="matrix(0.03934837,0.05227753,-0.05227753,0.03934837,-0.63505364,-9.5632223)">
    <path
       inkscape:connector-curvature="0"
       id="path4766"
       d="m 155.77932,69.484804 c 0,-23.369975 18.96081,-42.331019 42.33107,-42.331019 23.3807,0 42.33108,18.961044 42.33108,42.331019 0,23.3807 -18.95038,42.331076 -42.33108,42.331076 -23.37026,0 -42.33107,-18.950376 -42.33107,-42.331076 z"
       style="fill:#f2002e;fill-opacity:1;fill-rule:evenodd;stroke:none" />
    <path
       inkscape:connector-curvature="0"
       id="path4768"
       d="m 155.77932,69.484804 c 0,-23.369975 18.96081,-42.331019 42.33107,-42.331019 23.3807,0 42.33108,18.961044 42.33108,42.331019 0,23.3807 -18.95038,42.331076 -42.33108,42.331076 -23.37026,0 -42.33107,-18.950376 -42.33107,-42.331076"
       style="fill:none;stroke:#c00000;stroke-width:1.6109978px;stroke-linecap:butt;stroke-linejoin:miter;stroke-miterlimit:8;stroke-dasharray:none;stroke-opacity:1" />
    <path
       inkscape:connector-curvature="0"
       id="path4770"
       d="m 219.03209,54.116676 c 0,-3.221849 2.61789,-5.850467 5.8293,-5.850467 3.22185,0 5.8293,2.628618 5.8293,5.850467 0,3.232855 -2.60745,5.850466 -5.8293,5.850466 -3.21141,0 -5.8293,-2.617611 -5.8293,-5.850466 z"
       style="fill:#ffc5c1;fill-opacity:1;fill-rule:evenodd;stroke:none" />
    <path
       inkscape:connector-curvature="0"
       id="path4772"
       d="m 199.44587,40.677818 c 0,-3.222131 2.61789,-5.850467 5.82902,-5.850467 3.22213,0 5.8293,2.628336 5.8293,5.850467 0,3.232573 -2.60717,5.850466 -5.8293,5.850466 -3.21113,0 -5.82902,-2.617893 -5.82902,-5.850466 z"
       style="fill:#ffc5c1;fill-opacity:1;fill-rule:evenodd;stroke:none" />
    <path
       inkscape:connector-curvature="0"
       id="path4774"
       d="m 174.56008,76.0349 c 0,-3.222131 2.62833,-5.850467 5.85046,-5.850467 3.23258,0 5.85047,2.628336 5.85047,5.850467 0,3.232573 -2.61789,5.850467 -5.85047,5.850467 -3.22213,0 -5.85046,-2.617894 -5.85046,-5.850467 z"
       style="fill:#ffc5c1;fill-opacity:1;fill-rule:evenodd;stroke:none" />
    <path
       inkscape:connector-curvature="0"
       id="path4776"
       d="m 223.10202,79.553647 c 0,-3.222131 2.62833,-5.850467 5.85046,-5.850467 3.23258,0 5.85047,2.628336 5.85047,5.850467 0,3.232573 -2.61789,5.850466 -5.85047,5.850466 -3.22213,0 -5.85046,-2.617893 -5.85046,-5.850466 z"
       style="fill:#ffc5c1;fill-opacity:1;fill-rule:evenodd;stroke:none" />
    <path
       inkscape:connector-curvature="0"
       id="path4778"
       d="m 208.77247,95.494122 c 0,-2.501335 2.0351,-4.53644 4.53644,-4.53644 2.51177,0 4.53615,2.035105 4.53615,4.53644 0,2.511778 -2.02438,4.536158 -4.53615,4.536158 -2.50134,0 -4.53644,-2.02438 -4.53644,-4.536158 z"
       style="fill:#fdd8c3;fill-opacity:1;fill-rule:evenodd;stroke:none" />
    <path
       inkscape:connector-curvature="0"
       id="path4780"
       d="m 175.7471,101.04769 c 0,-2.501334 2.03511,-4.536157 4.53616,-4.536157 2.51206,0 4.53644,2.034823 4.53644,4.536157 0,2.51178 -2.02438,4.53616 -4.53644,4.53616 -2.50105,0 -4.53616,-2.02438 -4.53616,-4.53616 z"
       style="fill:#fdd8c3;fill-opacity:1;fill-rule:evenodd;stroke:none" />
    <path
       inkscape:connector-curvature="0"
       id="path4782"
       d="m 184.22619,40.508202 c 0,-2.501335 2.03482,-4.53644 4.53616,-4.53644 2.51177,0 4.53615,2.035105 4.53615,4.53644 0,2.511778 -2.02438,4.536158 -4.53615,4.536158 -2.50134,0 -4.53616,-2.02438 -4.53616,-4.536158 z"
       style="fill:#fdd8c3;fill-opacity:1;fill-rule:evenodd;stroke:none" />
    <path
       inkscape:connector-curvature="0"
       id="path4784"
       d="m 170.19353,54.540856 c 0,-2.501336 2.03483,-4.53644 4.53616,-4.53644 2.51178,0 4.53616,2.035104 4.53616,4.53644 0,2.511777 -2.02438,4.536157 -4.53616,4.536157 -2.50133,0 -4.53616,-2.02438 -4.53616,-4.536157 z"
       style="fill:#fdd8c3;fill-opacity:1;fill-rule:evenodd;stroke:none" />
    <path
       inkscape:connector-curvature="0"
       id="path4786"
       d="m 202.62538,59.797809 c 0,-2.501336 2.03483,-4.53644 4.53616,-4.53644 2.51206,0 4.53616,2.035104 4.53616,4.53644 0,2.511778 -2.0241,4.536158 -4.53616,4.536158 -2.50133,0 -4.53616,-2.02438 -4.53616,-4.536158 z"
       style="fill:#fdd8c3;fill-opacity:1;fill-rule:evenodd;stroke:none" />
    <path
       inkscape:connector-curvature="0"
       id="path4788"
       d="m 210.72262,76.0349 c 0,-1.420142 1.16586,-2.586002 2.58629,-2.586002 1.43086,0 2.586,1.16586 2.586,2.586002 0,1.430867 -1.15514,2.586002 -2.586,2.586002 -1.42043,0 -2.58629,-1.155135 -2.58629,-2.586002 z"
       style="fill:#fdd8c3;fill-opacity:1;fill-rule:evenodd;stroke:none" />
    <path
       inkscape:connector-curvature="0"
       id="path4790"
       d="m 191.81458,64.715531 c 0,-1.420142 1.16586,-2.586002 2.58628,-2.586002 1.43087,0 2.58601,1.16586 2.58601,2.586002 0,1.430867 -1.15514,2.586002 -2.58601,2.586002 -1.42042,0 -2.58628,-1.155135 -2.58628,-2.586002 z"
       style="fill:#fdd8c3;fill-opacity:1;fill-rule:evenodd;stroke:none" />
    <path
       inkscape:connector-curvature="0"
       id="path4792"
       d="m 186.98181,90.15222 c 0,-1.420142 1.16586,-2.586002 2.586,-2.586002 1.43086,0 2.586,1.16586 2.586,2.586002 0,1.430867 -1.15514,2.586002 -2.586,2.586002 -1.42014,0 -2.586,-1.155135 -2.586,-2.586002 z"
       style="fill:#fdd8c3;fill-opacity:1;fill-rule:evenodd;stroke:none" />
    <path
       inkscape:connector-curvature="0"
       id="path4794"
       d="m 169.64235,89.558707 c 0,-1.420143 1.16586,-2.586003 2.58601,-2.586003 1.43086,0 2.586,1.16586 2.586,2.586003 0,1.430866 -1.15514,2.586002 -2.586,2.586002 -1.42015,0 -2.58601,-1.155136 -2.58601,-2.586002 z"
       style="fill:#fdd8c3;fill-opacity:1;fill-rule:evenodd;stroke:none" />
    <path
       inkscape:connector-curvature="0"
       id="path4796"
       d="m 204.36359,105.09645 c 0,-1.43087 1.16586,-2.60745 2.586,-2.60745 1.43087,0 2.586,1.17658 2.586,2.60745 0,1.44131 -1.15513,2.60717 -2.586,2.60717 -1.42014,0 -2.586,-1.16586 -2.586,-2.60717 z"
       style="fill:#fdd8c3;fill-opacity:1;fill-rule:evenodd;stroke:none" />
    <path
       inkscape:connector-curvature="0"
       id="path4798"
       d="m 186.00673,52.802649 c 0,-1.420425 1.16586,-2.586285 2.586,-2.586285 1.43087,0 2.586,1.16586 2.586,2.586285 0,1.430867 -1.15513,2.586002 -2.586,2.586002 -1.42014,0 -2.586,-1.155135 -2.586,-2.586002 z"
       style="fill:#fdd8c3;fill-opacity:1;fill-rule:evenodd;stroke:none" />
    <path
       inkscape:connector-curvature="0"
       id="path4800"
       d="m 161.0786,61.281451 c 0,-1.425504 1.1605,-2.586002 2.58601,-2.586002 1.43086,0 2.586,1.160498 2.586,2.586002 0,1.430867 -1.15514,2.586002 -2.586,2.586002 -1.42551,0 -2.58601,-1.155135 -2.58601,-2.586002 z"
       style="fill:#fdd8c3;fill-opacity:1;fill-rule:evenodd;stroke:none" />
    <path
       inkscape:connector-curvature="0"
       id="path4802"
       d="m 192.19614,31.60522 c 0,-1.420142 1.16586,-2.586002 2.58629,-2.586002 1.43086,0 2.586,1.16586 2.586,2.586002 0,1.430867 -1.15514,2.586002 -2.586,2.586002 -1.42043,0 -2.58629,-1.155135 -2.58629,-2.586002 z"
       style="fill:#fdd8c3;fill-opacity:1;fill-rule:evenodd;stroke:none" />
    <path
       inkscape:connector-curvature="0"
       id="path4804"
       d="m 216.27647,42.203793 c 0,-1.420142 1.16586,-2.586002 2.586,-2.586002 1.43087,0 2.58601,1.16586 2.58601,2.586002 0,1.430867 -1.15514,2.586285 -2.58601,2.586285 -1.42014,0 -2.586,-1.155418 -2.586,-2.586285 z"
       style="fill:#fdd8c3;fill-opacity:1;fill-rule:evenodd;stroke:none" />
    <path
       inkscape:connector-curvature="0"
       id="path4806"
       d="m 205.88985,51.48834 c 0,-0.699629 0.57234,-1.271976 1.27169,-1.271976 0.71007,0 1.27198,0.572347 1.27198,1.271976 0,0.710071 -0.56191,1.271976 -1.27198,1.271976 -0.69935,0 -1.27169,-0.561905 -1.27169,-1.271976 z"
       style="fill:#843c0c;fill-opacity:1;fill-rule:evenodd;stroke:none" />
    <path
       inkscape:connector-curvature="0"
       id="path4808"
       d="m 175.61982,40.804818 c 0,-0.699347 0.56191,-1.271694 1.25081,-1.271694 0.69935,0 1.25053,0.572347 1.25053,1.271694 0,0.710071 -0.55118,1.271975 -1.25053,1.271975 -0.6889,0 -1.25081,-0.561904 -1.25081,-1.271975 z"
       style="fill:#843c0c;fill-opacity:1;fill-rule:evenodd;stroke:none" />
    <path
       inkscape:connector-curvature="0"
       id="path4810"
       d="m 166.25061,70.735613 c 0,-0.699629 0.57234,-1.271975 1.27197,-1.271975 0.70471,0 1.2717,0.572346 1.2717,1.271975 0,0.704709 -0.56699,1.271694 -1.2717,1.271694 -0.69963,0 -1.27197,-0.566985 -1.27197,-1.271694 z"
       style="fill:#843c0c;fill-opacity:1;fill-rule:evenodd;stroke:none" />
    <path
       inkscape:connector-curvature="0"
       id="path4812"
       d="m 195.41827,80.634558 c 0,-0.688905 0.56163,-1.250527 1.25053,-1.250527 0.69963,0 1.25081,0.561622 1.25081,1.250527 0,0.699629 -0.55118,1.250809 -1.25081,1.250809 -0.6889,0 -1.25053,-0.55118 -1.25053,-1.250809 z"
       style="fill:#843c0c;fill-opacity:1;fill-rule:evenodd;stroke:none" />
    <path
       inkscape:connector-curvature="0"
       id="path4814"
       d="m 229.03715,66.411404 c 0,-0.699628 0.57235,-1.271975 1.27198,-1.271975 0.71007,0 1.27169,0.572347 1.27169,1.271975 0,0.710072 -0.56162,1.271694 -1.27169,1.271694 -0.69963,0 -1.27198,-0.561622 -1.27198,-1.271694 z"
       style="fill:#843c0c;fill-opacity:1;fill-rule:evenodd;stroke:none" />
    <path
       inkscape:connector-curvature="0"
       id="path4816"
       d="m 195.58789,100.94186 c 0,-0.68891 0.56162,-1.250811 1.25053,-1.250811 0.69963,0 1.25081,0.561901 1.25081,1.250811 0,0.69934 -0.55118,1.25052 -1.25081,1.25052 -0.68891,0 -1.25053,-0.55118 -1.25053,-1.25052 z"
       style="fill:#843c0c;fill-opacity:1;fill-rule:evenodd;stroke:none" />
  </g>
</svg>
