<?xml version="1.0" encoding="UTF-8" standalone="no"?>
<!-- Created with Inkscape (http://www.inkscape.org/) -->

<svg
   xmlns:dc="http://purl.org/dc/elements/1.1/"
   xmlns:cc="http://creativecommons.org/ns#"
   xmlns:rdf="http://www.w3.org/1999/02/22-rdf-syntax-ns#"
   xmlns:svg="http://www.w3.org/2000/svg"
   xmlns="http://www.w3.org/2000/svg"
   xmlns:sodipodi="http://sodipodi.sourceforge.net/DTD/sodipodi-0.dtd"
   xmlns:inkscape="http://www.inkscape.org/namespaces/inkscape"
   id="svg3851"
   version="1.1"
   inkscape:version="0.91 r13725"
   xml:space="preserve"
   width="675.15002"
   height="553.75"
   viewBox="0 0 675.15001 553.75"
   sodipodi:docname="symmetry.svg"><metadata
     id="metadata3857"><rdf:RDF><cc:Work
         rdf:about=""><dc:format>image/svg+xml</dc:format><dc:type
           rdf:resource="http://purl.org/dc/dcmitype/StillImage" /><dc:title></dc:title></cc:Work></rdf:RDF></metadata><defs
     id="defs3855"><clipPath
       clipPathUnits="userSpaceOnUse"
       id="clipPath3865"><path
         d="m 0,1.2207e-4 1190.52,0 0,539.99999793 -1190.52,0 L 0,1.2207e-4 Z"
         id="path3867"
         inkscape:connector-curvature="0"
         style="clip-rule:evenodd" /></clipPath><clipPath
       clipPathUnits="userSpaceOnUse"
       id="clipPath3881"><path
         d="M 1.774e-5,0 1190.52,0 l 0,540 -1190.51998226,0 0,-540 z"
         id="path3883"
         inkscape:connector-curvature="0"
         style="clip-rule:evenodd" /></clipPath><clipPath
       clipPathUnits="userSpaceOnUse"
       id="clipPath3893"><path
         d="M 1.774e-5,0 1190.52,0 l 0,540 -1190.51998226,0 0,-540 z"
         id="path3895"
         inkscape:connector-curvature="0"
         style="clip-rule:evenodd" /></clipPath><clipPath
       clipPathUnits="userSpaceOnUse"
       id="clipPath3905"><path
         d="M 1.774e-5,0 1190.52,0 l 0,540 -1190.51998226,0 0,-540 z"
         id="path3907"
         inkscape:connector-curvature="0"
         style="clip-rule:evenodd" /></clipPath><clipPath
       clipPathUnits="userSpaceOnUse"
       id="clipPath3921"><path
         d="M 1.774e-5,0 1190.52,0 l 0,540 -1190.51998226,0 0,-540 z"
         id="path3923"
         inkscape:connector-curvature="0"
         style="clip-rule:evenodd" /></clipPath><clipPath
       clipPathUnits="userSpaceOnUse"
       id="clipPath3937"><path
         d="M 1.774e-5,0 1190.52,0 l 0,540 -1190.51998226,0 0,-540 z"
         id="path3939"
         inkscape:connector-curvature="0"
         style="clip-rule:evenodd" /></clipPath><clipPath
       clipPathUnits="userSpaceOnUse"
       id="clipPath3953"><path
         d="M 1.774e-5,0 1190.52,0 l 0,540 -1190.51998226,0 0,-540 z"
         id="path3955"
         inkscape:connector-curvature="0"
         style="clip-rule:evenodd" /></clipPath><clipPath
       clipPathUnits="userSpaceOnUse"
       id="clipPath3969"><path
         d="M 1.774e-5,0 1190.52,0 l 0,540 -1190.51998226,0 0,-540 z"
         id="path3971"
         inkscape:connector-curvature="0"
         style="clip-rule:evenodd" /></clipPath><clipPath
       clipPathUnits="userSpaceOnUse"
       id="clipPath3983"><path
         d="m 654.96,89.4 76.44,0 0,400.68 -76.44,0 0,-400.68 z"
         id="path3985"
         inkscape:connector-curvature="0" /></clipPath><linearGradient
       x1="693.17999"
       y1="890.76001"
       x2="693.17999"
       y2="89.400002"
       gradientUnits="userSpaceOnUse"
       spreadMethod="pad"
       id="linearGradient3987"><stop
         style="stop-opacity:1;stop-color:#ffffff"
         offset="0"
         id="stop3989" /><stop
         style="stop-opacity:1;stop-color:#ffffff"
         offset="0.085"
         id="stop3991" /><stop
         style="stop-opacity:1;stop-color:#ffffff"
         offset="0.13"
         id="stop3993" /><stop
         style="stop-opacity:0.66666667;stop-color:#ffffff"
         offset="0.25333"
         id="stop3995" /><stop
         style="stop-opacity:0.33333333;stop-color:#ffffff"
         offset="0.37667"
         id="stop3997" /><stop
         style="stop-opacity:0;stop-color:#ffffff"
         offset="0.5"
         id="stop3999" /><stop
         style="stop-opacity:0.33333333;stop-color:#ffffff"
         offset="0.62333"
         id="stop4001" /><stop
         style="stop-opacity:0.66666667;stop-color:#ffffff"
         offset="0.74667"
         id="stop4003" /><stop
         style="stop-opacity:1;stop-color:#ffffff"
         offset="0.87"
         id="stop4005" /><stop
         style="stop-opacity:1;stop-color:#ffffff"
         offset="0.915"
         id="stop4007" /><stop
         style="stop-opacity:1;stop-color:#ffffff"
         offset="1"
         id="stop4009" /></linearGradient><mask
       maskUnits="userSpaceOnUse"
       x="0"
       y="0"
       width="1"
       height="1"
       id="mask4011"><g
         id="g4013"><g
           clip-path="url(#clipPath3983)"
           id="g4015"><path
             d="m 654.96,490.08 76.44,0 0,-400.68 -76.44,0 0,400.68 z m 0.96,-400.2 -0.48,0.48 75.48,0 -0.48,-0.48 0,399.72 0.48,-0.48 -75.48,0 0.48,0.48 0,-399.72 z"
             style="fill:url(#linearGradient3987);fill-opacity:1;fill-rule:nonzero;stroke:none"
             id="path4017"
             inkscape:connector-curvature="0" /></g></g></mask><linearGradient
       x1="693.17999"
       y1="890.76001"
       x2="693.17999"
       y2="89.400002"
       gradientUnits="userSpaceOnUse"
       spreadMethod="pad"
       id="linearGradient4021"><stop
         style="stop-opacity:1;stop-color:#d4e8c6"
         offset="0"
         id="stop4023" /><stop
         style="stop-opacity:1;stop-color:#bedcaa"
         offset="0.085"
         id="stop4025" /><stop
         style="stop-opacity:1;stop-color:#bedcaa"
         offset="0.13"
         id="stop4027" /><stop
         style="stop-opacity:1;stop-color:#d1e6c3"
         offset="0.25333"
         id="stop4029" /><stop
         style="stop-opacity:1;stop-color:#e4f0dc"
         offset="0.37667"
         id="stop4031" /><stop
         style="stop-opacity:1;stop-color:#f8fbf6"
         offset="0.5"
         id="stop4033" /><stop
         style="stop-opacity:1;stop-color:#e4f0dc"
         offset="0.62333"
         id="stop4035" /><stop
         style="stop-opacity:1;stop-color:#d1e6c3"
         offset="0.74667"
         id="stop4037" /><stop
         style="stop-opacity:1;stop-color:#bedcaa"
         offset="0.87"
         id="stop4039" /><stop
         style="stop-opacity:1;stop-color:#bedcaa"
         offset="0.915"
         id="stop4041" /><stop
         style="stop-opacity:1;stop-color:#d4e8c6"
         offset="1"
         id="stop4043" /></linearGradient><clipPath
       clipPathUnits="userSpaceOnUse"
       id="clipPath4051"><path
         d="M 1.774e-5,0 1190.52,0 l 0,540 -1190.51998226,0 0,-540 z"
         id="path4053"
         inkscape:connector-curvature="0"
         style="clip-rule:evenodd" /></clipPath><clipPath
       clipPathUnits="userSpaceOnUse"
       id="clipPath4067"><path
         d="M 1.774e-5,0 1190.52,0 l 0,540 -1190.51998226,0 0,-540 z"
         id="path4069"
         inkscape:connector-curvature="0"
         style="clip-rule:evenodd" /></clipPath><clipPath
       clipPathUnits="userSpaceOnUse"
       id="clipPath4085"><path
         d="M 1.774e-5,0 1190.52,0 l 0,540 -1190.51998226,0 0,-540 z"
         id="path4087"
         inkscape:connector-curvature="0"
         style="clip-rule:evenodd" /></clipPath><clipPath
       clipPathUnits="userSpaceOnUse"
       id="clipPath4097"><path
         d="M 1.774e-5,0 1190.52,0 l 0,540 -1190.51998226,0 0,-540 z"
         id="path4099"
         inkscape:connector-curvature="0"
         style="clip-rule:evenodd" /></clipPath><clipPath
       clipPathUnits="userSpaceOnUse"
       id="clipPath4109"><path
         d="M 1.774e-5,0 1190.52,0 l 0,540 -1190.51998226,0 0,-540 z"
         id="path4111"
         inkscape:connector-curvature="0"
         style="clip-rule:evenodd" /></clipPath><clipPath
       clipPathUnits="userSpaceOnUse"
       id="clipPath4121"><path
         d="M 1.774e-5,0 1190.52,0 l 0,540 -1190.51998226,0 0,-540 z"
         id="path4123"
         inkscape:connector-curvature="0"
         style="clip-rule:evenodd" /></clipPath><clipPath
       clipPathUnits="userSpaceOnUse"
       id="clipPath4133"><path
         d="M 1.774e-5,0 1190.52,0 l 0,540 -1190.51998226,0 0,-540 z"
         id="path4135"
         inkscape:connector-curvature="0"
         style="clip-rule:evenodd" /></clipPath></defs><sodipodi:namedview
     pagecolor="#ffffff"
     bordercolor="#666666"
     borderopacity="1"
     objecttolerance="10"
     gridtolerance="10"
     guidetolerance="10"
     inkscape:pageopacity="0"
     inkscape:pageshadow="2"
     inkscape:window-width="1682"
     inkscape:window-height="1018"
     id="namedview3853"
     showgrid="false"
     fit-margin-top="0"
     fit-margin-left="0"
     fit-margin-right="0"
     fit-margin-bottom="0"
     inkscape:zoom="0.25400665"
     inkscape:cx="355.87501"
     inkscape:cy="254.95"
     inkscape:window-x="-8"
     inkscape:window-y="-8"
     inkscape:window-maximized="1"
     inkscape:current-layer="g3859" /><g
     id="g3859"
     inkscape:groupmode="layer"
     inkscape:label="MobileAPISalamy"
     transform="matrix(1.25,0,0,-1.25,-388.2,636.3)"><g
       id="g4141"><path
         inkscape:connector-curvature="0"
         id="path3871"
         style="fill:#e7e6e6;fill-opacity:1;fill-rule:evenodd;stroke:none"
         d="m 430.92,89.88 300,0 0,399.72 -300,0 0,-399.72 z" /><path
         inkscape:connector-curvature="0"
         id="path3873"
         style="fill:#1f4e79;fill-opacity:1;fill-rule:evenodd;stroke:none"
         d="m 311.04,89.88 119.88,0 0,401.16 -119.88,0 0,-401.16 z" /><path
         inkscape:connector-curvature="0"
         id="path3875"
         style="fill:none;stroke:#f2f2f2;stroke-width:0.95999998;stroke-linecap:butt;stroke-linejoin:miter;stroke-miterlimit:10;stroke-dasharray:none;stroke-opacity:1"
         d="m 311.04,89.88 119.88,0 0,401.16 -119.88,0 0,-401.16 z" /><g
         id="g3877"><g
           clip-path="url(#clipPath3881)"
           id="g3879"><text
             id="text3885"
             style="font-variant:normal;font-weight:normal;font-size:24px;font-family:Calibri;-inkscape-font-specification:Calibri;writing-mode:lr-tb;fill:#ffffff;fill-opacity:1;fill-rule:nonzero;stroke:none"
             transform="matrix(1,0,0,-1,327.05,99.768)"><tspan
               id="tspan3887"
               y="0"
               x="0">C</tspan></text>
</g></g><g
         id="g3889"><g
           clip-path="url(#clipPath3893)"
           id="g3891"><text
             id="text3897"
             style="font-variant:normal;font-weight:normal;font-size:24px;font-family:Calibri;-inkscape-font-specification:Calibri;writing-mode:lr-tb;fill:#ffffff;fill-opacity:1;fill-rule:nonzero;stroke:none"
             transform="matrix(1,0,0,-1,339.89,99.768)"><tspan
               id="tspan3899"
               sodipodi:role="line"
               y="0"
               x="0 12.096 24.048">++ </tspan></text>
</g></g><g
         id="g3901"><g
           clip-path="url(#clipPath3905)"
           id="g3903"><text
             id="text3909"
             style="font-variant:normal;font-weight:normal;font-size:24px;font-family:Calibri;-inkscape-font-specification:Calibri;writing-mode:lr-tb;fill:#ffffff;fill-opacity:1;fill-rule:nonzero;stroke:none"
             transform="matrix(1,0,0,-1,369.29,99.768)"><tspan
               id="tspan3911"
               sodipodi:role="line"
               y="0"
               x="0 12.792 25.440001 33.48">Core</tspan></text>
</g></g><path
         inkscape:connector-curvature="0"
         id="path3913"
         style="fill:#92d050;fill-opacity:1;fill-rule:evenodd;stroke:none"
         d="m 584.04,89.88 71.4,0 0,212.04 -71.4,0 0,-212.04 z" /><path
         inkscape:connector-curvature="0"
         id="path3915"
         style="fill:none;stroke:#f2f2f2;stroke-width:0.95999998;stroke-linecap:butt;stroke-linejoin:miter;stroke-miterlimit:10;stroke-dasharray:none;stroke-opacity:1"
         d="m 584.04,89.88 71.4,0 0,212.04 -71.4,0 0,-212.04 z" /><g
         id="g3917"><g
           clip-path="url(#clipPath3921)"
           id="g3919"><text
             id="text3925"
             style="font-variant:normal;font-weight:bold;font-size:24px;font-family:Calibri;-inkscape-font-specification:Calibri-Bold;writing-mode:lr-tb;fill:#ffffff;fill-opacity:1;fill-rule:nonzero;stroke:none"
             transform="matrix(-4.4e-8,-1,-1,4.4e-8,611.76,149.4)"><tspan
               id="tspan3927"
               sodipodi:role="line"
               y="0"
               x="0 15.816 22.224001 43.200001">NIMP</tspan></text>
</g></g><path
         inkscape:connector-curvature="0"
         id="path3929"
         style="fill:#45af87;fill-opacity:1;fill-rule:evenodd;stroke:none"
         d="m 545.88,89.88 38.64,0 0,212.04 -38.64,0 0,-212.04 z" /><path
         inkscape:connector-curvature="0"
         id="path3931"
         style="fill:none;stroke:#f2f2f2;stroke-width:0.95999998;stroke-linecap:butt;stroke-linejoin:miter;stroke-miterlimit:10;stroke-dasharray:none;stroke-opacity:1"
         d="m 545.88,89.88 38.64,0 0,212.04 -38.64,0 0,-212.04 z" /><g
         id="g3933"><g
           clip-path="url(#clipPath3937)"
           id="g3935"><text
             id="text3941"
             style="font-variant:normal;font-weight:bold;font-size:24px;font-family:Calibri;-inkscape-font-specification:Calibri-Bold;writing-mode:lr-tb;fill:#ffffff;fill-opacity:1;fill-rule:nonzero;stroke:none"
             transform="matrix(-4.4e-8,-1,-1,4.4e-8,559.49,123.48)"><tspan
               id="tspan3943"
               sodipodi:role="line"
               y="0"
               x="0 13.464 19.872">BIL</tspan></text>
</g></g><path
         inkscape:connector-curvature="0"
         id="path3945"
         style="fill:#5b9bd5;fill-opacity:1;fill-rule:evenodd;stroke:none"
         d="m 507.72,89.88 38.16,0 0,212.04 -38.16,0 0,-212.04 z" /><path
         inkscape:connector-curvature="0"
         id="path3947"
         style="fill:none;stroke:#f2f2f2;stroke-width:0.95999998;stroke-linecap:butt;stroke-linejoin:miter;stroke-miterlimit:10;stroke-dasharray:none;stroke-opacity:1"
         d="m 507.72,89.88 38.16,0 0,212.04 -38.16,0 0,-212.04 z" /><g
         id="g3949"><g
           clip-path="url(#clipPath3953)"
           id="g3951"><text
             id="text3957"
             style="font-variant:normal;font-weight:normal;font-size:24px;font-family:Calibri;-inkscape-font-specification:Calibri;writing-mode:lr-tb;fill:#ffffff;fill-opacity:1;fill-rule:nonzero;stroke:none"
             transform="matrix(-4.4e-8,-1,-1,4.4e-8,521.3,150.36)"><tspan
               id="tspan3959"
               sodipodi:role="line"
               y="0"
               x="0 11.76 24.552 38.495998 50.903999">XCAPI</tspan></text>
</g></g><path
         inkscape:connector-curvature="0"
         id="path3961"
         style="fill:#2e75b6;fill-opacity:1;fill-rule:evenodd;stroke:none"
         d="m 430.92,89.88 76.8,0 0,401.16 -76.8,0 0,-401.16 z" /><path
         inkscape:connector-curvature="0"
         id="path3963"
         style="fill:none;stroke:#f2f2f2;stroke-width:0.95999998;stroke-linecap:butt;stroke-linejoin:miter;stroke-miterlimit:10;stroke-dasharray:none;stroke-opacity:1"
         d="m 430.92,89.88 76.8,0 0,401.16 -76.8,0 0,-401.16 z" /><g
         id="g3965"><g
           clip-path="url(#clipPath3969)"
           id="g3967"><text
             id="text3973"
             style="font-variant:normal;font-weight:normal;font-size:24.02400017px;font-family:Calibri;-inkscape-font-specification:Calibri;writing-mode:lr-tb;fill:#ffffff;fill-opacity:1;fill-rule:nonzero;stroke:none"
             transform="matrix(-4.4e-8,-1,-1,4.4e-8,461.3,138.34)"><tspan
               id="tspan3975"
               sodipodi:role="line"
               y="0"
               x="0 12.468456 26.378351 38.798759">XAPI</tspan></text>
</g></g><path
         inkscape:connector-curvature="0"
         id="path3977"
         style="fill:#aad18f;fill-opacity:1;fill-rule:evenodd;stroke:none"
         d="m 655.44,89.88 75.48,0 0,399.72 -75.48,0 0,-399.72 z" /><g
         id="g3979"><g
           id="g3981" /><g
           mask="url(#mask4011)"
           id="g4019"><path
             inkscape:connector-curvature="0"
             id="path4045"
             style="fill:url(#linearGradient4021);fill-opacity:1;fill-rule:nonzero;stroke:none"
             d="m 654.96,490.08 76.44,0 0,-400.68 -76.44,0 0,400.68 z m 0.96,-400.2 -0.48,0.48 75.48,0 -0.48,-0.48 0,399.72 0.48,-0.48 -75.48,0 0.48,0.48 0,-399.72 z" /></g></g><g
         id="g4047"><g
           clip-path="url(#clipPath4051)"
           id="g4049"><text
             id="text4055"
             style="font-variant:normal;font-weight:bold;font-size:24px;font-family:Calibri;-inkscape-font-specification:Calibri-Bold;writing-mode:lr-tb;fill:#ffffff;fill-opacity:1;fill-rule:nonzero;stroke:none"
             transform="matrix(-4.4e-8,-1,-1,4.4e-8,685.22,137.35)"><tspan
               id="tspan4057"
               sodipodi:role="line"
               y="0"
               x="0 15.816 22.224001">NIW</tspan></text>
</g></g><path
         inkscape:connector-curvature="0"
         id="path4059"
         style="fill:#d9d9d9;fill-opacity:1;fill-rule:evenodd;stroke:none"
         d="m 730.32,89.88 119.88,0 0,399.72 -119.88,0 0,-399.72 z" /><path
         inkscape:connector-curvature="0"
         id="path4061"
         style="fill:none;stroke:#f2f2f2;stroke-width:0.95999998;stroke-linecap:butt;stroke-linejoin:miter;stroke-miterlimit:10;stroke-dasharray:none;stroke-opacity:1"
         d="m 730.32,89.88 119.88,0 0,399.72 -119.88,0 0,-399.72 z" /><g
         id="g4063"><g
           clip-path="url(#clipPath4067)"
           id="g4065"><text
             id="text4071"
             style="font-variant:normal;font-weight:normal;font-size:24px;font-family:Calibri;-inkscape-font-specification:Calibri;writing-mode:lr-tb;fill:#ffffff;fill-opacity:1;fill-rule:nonzero;stroke:none"
             transform="matrix(1,0,0,-1,770.76,99.768)"><tspan
               id="tspan4073"
               sodipodi:role="line"
               y="0"
               x="0 13.896 26.496">App</tspan></text>
</g></g><g
         id="g4075"><path
           inkscape:connector-curvature="0"
           id="path4077"
           style="fill:none;stroke:#9dc3e6;stroke-width:0.47999999;stroke-linecap:butt;stroke-linejoin:miter;stroke-miterlimit:10;stroke-dasharray:1.92, 1.44;stroke-dashoffset:0;stroke-opacity:1"
           d="m 584.04,509.04 0,-443" /></g><path
         inkscape:connector-curvature="0"
         id="path4079"
         style="fill:#8497b0;fill-opacity:1;fill-rule:nonzero;stroke:none"
         d="m 517.29,433.57 1.16,-7.14 0,0.04 1.25,-6.87 -0.01,0.04 1.34,-6.6 -0.01,0.04 1.43,-6.35 -0.01,0.05 1.5,-6.09 -0.02,0.05 1.59,-5.83 -0.02,0.05 1.66,-5.58 -0.01,0.05 1.72,-5.34 -0.02,0.06 1.8,-5.08 -0.02,0.06 1.87,-4.84 -0.02,0.06 1.92,-4.6 -0.03,0.06 1.99,-4.36 -0.03,0.07 2.05,-4.13 -0.04,0.07 2.1,-3.89 -0.04,0.07 2.15,-3.66 -0.05,0.07 2.2,-3.43 -0.05,0.07 2.24,-3.21 -0.06,0.08 2.28,-2.99 -0.06,0.08 2.32,-2.77 -0.08,0.08 2.36,-2.56 -0.08,0.09 2.39,-2.34 -0.09,0.08 2.42,-2.13 -0.1,0.08 2.44,-1.93 -0.11,0.08 2.47,-1.71 -0.12,0.07 2.49,-1.51 -0.13,0.07 2.5,-1.31 -0.13,0.06 2.51,-1.12 -0.14,0.06 2.53,-0.93 -0.16,0.05 2.54,-0.73 -0.15,0.04 2.53,-0.55 -0.16,0.03 2.54,-0.36 -0.16,0.02 2.54,-0.18 -0.17,0.01 2.53,0 -0.15,0 2.52,0.18 -0.15,-0.02 2.51,0.35 -0.15,-0.02 2.5,0.52 -0.15,-0.03 2.48,0.69 -0.14,-0.04 2.46,0.86 -0.12,-0.05 2.43,1.02 -0.12,-0.05 2.42,1.18 -0.12,-0.06 2.38,1.34 -0.11,-0.06 2.35,1.5 -0.1,-0.07 2.32,1.65 -0.09,-0.07 2.27,1.8 -0.08,-0.06 2.23,1.94 -0.08,-0.07 2.19,2.09 -0.06,-0.07 2.14,2.23 -0.07,-0.07 2.09,2.37 -0.06,-0.07 2.04,2.5 -0.05,-0.07 1.98,2.64 -0.06,-0.07 1.92,2.77 -0.05,-0.07 1.86,2.9 -0.04,-0.07 1.79,3.01 -0.04,-0.06 1.72,3.14 -0.05,-0.1 3.22,6.63 -0.06,-0.13 2.9,7.09 -0.05,-0.13 2.57,7.51 -0.05,-0.16 1.35,5.16 4.41,-1.16 -1.37,-5.23 -2.61,-7.66 -2.96,-7.22 -3.27,-6.74 -1.77,-3.23 -1.83,-3.08 -1.9,-2.96 -1.96,-2.84 -2.03,-2.71 -2.1,-2.57 -2.15,-2.44 -2.21,-2.3 -2.26,-2.17 -2.32,-2.01 -2.36,-1.87 -2.41,-1.71 -2.45,-1.57 -2.49,-1.4 -2.53,-1.25 -2.56,-1.07 -2.6,-0.91 -2.62,-0.74 -2.65,-0.55 -2.67,-0.38 -2.68,-0.19 -2.69,-0.01 -2.7,0.2 -2.7,0.38 -2.69,0.58 -2.69,0.77 -2.67,0.99 -2.65,1.17 -2.64,1.39 -2.6,1.58 -2.58,1.8 -2.54,2.01 -2.51,2.21 -2.47,2.42 -2.44,2.64 -2.38,2.85 -2.34,3.07 -2.3,3.29 -2.24,3.51 -2.19,3.73 -2.14,3.97 -2.08,4.2 -2.02,4.42 -1.95,4.67 -1.89,4.9 -1.82,5.14 -1.75,5.39 -1.68,5.64 -1.59,5.88 -1.52,6.14 -1.43,6.4 -1.35,6.65 -1.26,6.91 -1.17,7.16 4.5,0.74 z m 116.54,-48.03 9.85,11.71 3.45,-14.91 -13.3,3.2 z" /><g
         id="g4081"><g
           clip-path="url(#clipPath4085)"
           id="g4083"><text
             id="text4089"
             style="font-variant:normal;font-weight:normal;font-size:14.03999996px;font-family:Calibri;-inkscape-font-specification:Calibri;writing-mode:lr-tb;fill:#002060;fill-opacity:1;fill-rule:nonzero;stroke:none"
             transform="matrix(1,0,0,-1,550.75,416.52)"><tspan
               id="tspan4091"
               sodipodi:role="line"
               y="0"
               x="0 8.1291599 15.35976 20.76516 25.468559 30.129841 36.855 42.723721 47.42712 50.656319 58.055401 65.426399">Abstraction,</tspan></text>
</g></g><g
         id="g4093"><g
           clip-path="url(#clipPath4097)"
           id="g4095"><text
             id="text4101"
             style="font-variant:normal;font-weight:normal;font-size:14.06400013px;font-family:Calibri;-inkscape-font-specification:Calibri;writing-mode:lr-tb;fill:#002060;fill-opacity:1;fill-rule:nonzero;stroke:none"
             transform="matrix(1,0,0,-1,541.15,399.72)"><tspan
               id="tspan4103"
               sodipodi:role="line"
               y="0"
               x="0 6.8632321 12.952944 20.280289 24.9636 31.92528 37.424305 42.923328 46.186176 52.430592 59.392273 66.705551 73.667229 79.16626 84.665283">Expressiveness,</tspan></text>
</g></g><g
         id="g4105"><g
           clip-path="url(#clipPath4109)"
           id="g4107"><text
             id="text4113"
             style="font-variant:normal;font-weight:normal;font-size:14.03999996px;font-family:Calibri;-inkscape-font-specification:Calibri;writing-mode:lr-tb;fill:#002060;fill-opacity:1;fill-rule:nonzero;stroke:none"
             transform="matrix(1,0,0,-1,552.19,382.9)"><tspan
               id="tspan4115"
               sodipodi:role="line"
               y="0"
               x="0 6.2337599 12.59388 19.90872">Type</tspan></text>
</g></g><g
         id="g4117"><g
           clip-path="url(#clipPath4121)"
           id="g4119"><text
             id="text4125"
             style="font-variant:normal;font-weight:normal;font-size:14.03999996px;font-family:Calibri;-inkscape-font-specification:Calibri;writing-mode:lr-tb;fill:#002060;fill-opacity:1;fill-rule:nonzero;stroke:none"
             transform="matrix(1,0,0,-1,579.1,382.9)"><tspan
               id="tspan4127"
               y="0"
               x="0">-</tspan></text>
</g></g><g
         id="g4129"><g
           clip-path="url(#clipPath4133)"
           id="g4131"><text
             id="text4137"
             style="font-variant:normal;font-weight:normal;font-size:14.03999996px;font-family:Calibri;-inkscape-font-specification:Calibri;writing-mode:lr-tb;fill:#002060;fill-opacity:1;fill-rule:nonzero;stroke:none"
             transform="matrix(1,0,0,-1,583.42,382.9)"><tspan
               id="tspan4139"
               sodipodi:role="line"
               y="0"
               x="0 6.4443598 13.08528 17.044559 23.88204 28.58544">Safety</tspan></text>
</g></g></g></g></svg>